HIERARCHY
ROOT Hips
{
  OFFSET 0 0 0
  CHANNELS 6 Xposition Yposition Zposition Zrotation Yrotation Xrotation
  JOINT LeftThigh
  {
    OFFSET 8.409438 0 -5.917753
    CHANNELS 3 Zrotation Yrotation Xrotation
    JOINT LeftLeg
    {
      OFFSET 0 0 -42.358652
      CHANNELS 3 Zrotation Yrotation Xrotation
      JOINT LeftFoot
      {
        OFFSET 0 0 -39.357303
        CHANNELS 3 Zrotation Yrotation Xrotation
      }
    }
  }
  JOINT RightThigh
  {
    OFFSET -8.409438 0 -5.917753
    CHANNELS 3 Zrotation Yrotation Xrotation
    JOINT RightLeg
    {
      OFFSET 0 0 -42.358652
      CHANNELS 3 Zrotation Yrotation Xrotation
      JOINT RightFoot
      {
        OFFSET 0 0 -39.357303
        CHANNELS 3 Zrotation Yrotation Xrotation
      }
    }
  }
  JOINT SpineLow
  {
    OFFSET 0 0 4.719101
    CHANNELS 3 Zrotation Yrotation Xrotation
    JOINT SpineMid
    {
      OFFSET 0 0 12.899191
      CHANNELS 3 Zrotation Yrotation Xrotation
      JOINT Chest
      {
        OFFSET 0 0 12.899191
        CHANNELS 3 Zrotation Yrotation Xrotation
        JOINT LeftShoulder
        {
          OFFSET 7.550562 1.41573 9.438202
          CHANNELS 3 Zrotation Yrotation Xrotation
          JOINT LeftArm
          {
            OFFSET 9.155056 0 4.247191
            CHANNELS 3 Zrotation Yrotation Xrotation
            JOINT LeftForearm
            {
              OFFSET 0 0 25.771955
              CHANNELS 3 Zrotation Yrotation Xrotation
              JOINT LeftHand
              {
                OFFSET 0 0 25.197169
                CHANNELS 3 Zrotation Yrotation Xrotation
              }
            }
          }
        }
        JOINT RightShoulder
        {
          OFFSET -7.550562 1.41573 9.438202
          CHANNELS 3 Zrotation Yrotation Xrotation
          JOINT RightArm
          {
            OFFSET -9.155056 0 4.247191
            CHANNELS 3 Zrotation Yrotation Xrotation
            JOINT RightForearm
            {
              OFFSET 0 0 -25.771955
              CHANNELS 3 Zrotation Yrotation Xrotation
              JOINT RightHand
              {
                OFFSET 0 0 -25.197169
                CHANNELS 3 Zrotation Yrotation Xrotation
              }
            }
          }
        }
        JOINT Neck
        {
          OFFSET 0 0 15.101124
          CHANNELS 3 Zrotation Yrotation Xrotation
          JOINT Head
          {
            OFFSET 0 0 11.325843
            CHANNELS 3 Zrotation Yrotation Xrotation
            End Site
            {
              OFFSET 0 0 14.157303
            }
          }
        }
      }
    }
  }
}
MOTION
Frames: 10
Frame Time: 0.0
0.0  89.887642  0.0  22.195391  -71.596599  -122.41996  40.714597  -30.999936  -26.938284  20.841918  21.896003  74.149213  -2.106034  -0.211197  -1.017666  -27.734351  12.532416  -33.671864  18.886127  16.838263  60.389273  12.137333  3.577029  -4.575579  1.880666  2.225793  1.231002  5.265922  5.981934  3.544846  5.265921  5.981934  3.544846  -13.776315  18.764634  9.634774  -90.50647  53.351197  -74.317321  -33.386927  1.582332  87.814875  59.884168  -17.785066  15.267375  -7.984019  -3.6662  21.996562  133.633017  30.379415  42.179887  -15.019914  -2.750912  -77.330027  92.914385  5.244546  -27.926849  7.50576  -9.973134  2.997724  5.664515  -7.444692  2.366598  
0.0  89.887642  0.0  22.331291  -71.496715  -122.455899  41.247841  -31.270935  -27.019542  21.065364  21.775413  74.065445  -2.453385  -0.192734  -1.120379  -27.994059  12.235624  -33.824607  19.224064  17.202609  60.738013  12.315672  3.660327  -4.709486  1.918235  2.206838  1.187077  5.363723  5.931713  3.426278  5.363724  5.931713  3.426278  -13.887874  18.941043  9.938316  -90.697574  53.079345  -74.313498  -33.315234  1.335864  87.757444  59.93418  -17.828741  15.110633  -7.972357  -3.481822  22.229248  133.802963  30.548026  42.286819  -15.198238  -2.956377  -77.054257  92.309893  5.281115  -27.652339  7.293785  -9.709048  3.018246  5.505669  -7.247306  2.375504  
0.0  89.887642  0.0  21.93557  -71.1561  -122.041259  41.37236  -31.57161  -27.063058  21.152629  21.856905  73.855951  -2.655309  -0.105764  -1.1712  -29.100375  11.933214  -33.88732  19.947352  17.291061  60.7858  12.58282  3.806978  -4.865655  1.864062  2.168254  1.156482  5.21029  5.831714  3.33439  5.21029  5.831714  3.33439  -13.717449  19.213453  10.239857  -91.050511  52.852515  -74.068099  -33.153079  1.517602  87.968343  59.279096  -18.316413  15.440757  -7.73791  -3.251351  22.520603  134.251485  30.531435  42.584628  -15.522461  -3.203701  -76.728223  92.254977  5.163279  -27.185764  7.306996  -9.429812  3.041727  5.51526  -7.037492  2.390178  
0.0  89.887642  0.0  21.664439  -70.817317  -121.932338  41.469329  -31.910012  -26.898648  21.088856  22.054801  73.563187  -2.738787  -0.035726  -1.175259  -29.285243  11.934728  -33.62121  20.054354  17.567946  60.938854  12.636499  3.845837  -4.991022  1.865008  2.150301  1.152665  5.211475  5.782949  3.322493  5.211474  5.78295  3.322493  -13.759558  19.432952  10.60104  -91.16466  52.661226  -73.830495  -33.259293  1.238029  87.766172  59.284994  -18.275141  15.326009  -7.765685  -3.09874  22.782005  134.201592  30.675791  42.572821  -15.453509  -3.37539  -76.438501  92.48757  4.962202  -26.768643  7.128221  -9.350473  3.102905  5.382231  -6.978102  2.432305  
0.0  89.887642  0.0  20.917783  -70.301961  -121.426234  41.496346  -32.173527  -26.815411  20.87689  22.200904  73.275058  -2.868307  -0.004798  -1.203015  -30.675641  11.862143  -33.437887  20.658379  17.290594  60.742952  12.731397  4.129513  -5.107168  1.803362  2.117498  1.175719  5.042652  5.694794  3.377551  5.042652  5.694794  3.377551  -13.716532  19.663397  10.850832  -91.368939  52.47746  -73.456901  -33.393652  1.099344  87.482068  59.484876  -18.085276  15.163272  -7.744747  -2.996922  22.987706  134.930519  30.237657  42.785197  -16.040429  -3.586456  -75.962217  92.859244  4.699158  -26.480226  7.087254  -9.2711  3.104845  5.351392  -6.918732  2.432266  
0.0  89.887642  0.0  20.335304  -69.9118  -121.130014  41.817852  -32.331367  -26.799371  20.428555  22.207544  72.981657  -2.988335  0.016659  -1.213498  -30.729284  12.059831  -32.918406  20.558265  17.401687  60.72827  12.661666  4.17606  -5.165898  1.784642  2.096782  1.223894  4.994209  5.635524  3.506142  4.994209  5.635524  3.506142  -13.822775  19.802981  10.972928  -91.540981  52.335  -73.27679  -33.565501  0.992874  87.218843  59.420634  -17.984725  15.177905  -7.858167  -2.96848  22.979052  134.852477  30.211631  42.726207  -15.910434  -3.890043  -75.716284  93.200108  4.558643  -26.41473  6.914216  -9.3027  3.069775  5.22144  -6.943652  2.403684  
0.0  89.887642  0.0  20.077594  -69.666338  -121.085941  42.247582  -32.276185  -26.90627  19.801402  22.178473  72.586124  -3.017187  0.08284  -1.205717  -30.672506  12.276901  -32.451166  20.437014  17.43468  60.597086  12.566528  4.191569  -5.197844  1.7487  2.075115  1.287498  4.899753  5.573537  3.675481  4.899753  5.573537  3.675481  -13.795499  19.928046  10.893232  -91.842445  52.233999  -73.273751  -33.781132  0.92476  86.965341  59.45234  -17.938102  15.147429  -7.84348  -3.047099  22.91344  135.086817  29.987056  42.923721  -15.392272  -4.286142  -75.640908  93.418807  4.377746  -25.843428  6.936936  -9.258155  2.919238  5.236012  -6.911814  2.290894  
0.0  89.887642  0.0  19.428982  -69.426895  -120.604359  42.773026  -32.304315  -27.098534  19.283692  22.114128  72.297981  -3.148312  0.083959  -1.236176  -30.322666  12.260585  -32.011135  20.192741  17.752957  60.703063  12.490416  4.185449  -5.220062  1.723203  2.05603  1.36075  4.834763  5.517438  3.872356  4.834764  5.517438  3.872356  -13.876038  19.90058  10.694108  -92.267273  52.282799  -73.323125  -33.989031  0.726307  86.746345  59.435101  -17.949577  15.017016  -7.839857  -3.154151  22.627987  135.049034  29.911548  42.974836  -15.185552  -4.672756  -75.59915  93.551444  4.348299  -25.691883  6.854662  -9.30507  2.717515  5.17144  -6.949606  2.139139  
0.0  89.887642  0.0  19.126601  -69.29482  -120.423  43.225649  -32.317905  -27.217474  18.046393  22.736057  71.258881  -2.451853  0.576243  -0.862005  -29.511027  12.406702  -31.54254  19.725227  18.045109  60.804453  12.402443  4.075  -5.202074  1.650242  2.055781  1.447012  4.642095  5.514978  4.10246  4.642095  5.514978  4.102461  -13.755461  19.686149  10.291494  -92.723406  52.27946  -73.747678  -34.19326  0.58679  86.43792  59.287339  -18.080971  15.068495  -7.46171  -3.308341  22.321008  135.021676  29.904499  43.094933  -14.903308  -4.857649  -75.587574  93.614205  4.354934  -25.535359  7.075093  -9.346421  2.417912  5.331841  -6.98314  1.918758  
0.0  89.887642  0.0  18.694028  -69.143779  -120.063962  43.433057  -32.404148  -27.317344  17.793282  22.798228  71.001201  -2.465313  0.594628  -0.84884  -29.256669  12.323572  -31.241141  19.629746  18.250838  60.935587  12.402939  4.103231  -5.23918  1.624194  2.057689  1.534548  4.578132  5.515664  4.340096  4.578131  5.515664  4.340096  -13.802271  19.405061  9.890668  -93.268631  52.396622  -74.093488  -34.30915  0.506619  86.271716  59.227519  -18.116942  15.014536  -7.344098  -3.416281  21.966503  134.974807  29.950639  43.115156  -14.785948  -4.934554  -75.613163  93.684024  4.378377  -25.465116  7.127877  -9.415345  2.112409  5.366675  -7.038174  1.691695  
